<svg t="1702013028016" class="icon" viewBox="0 0 1024 1024" version="1.1" xmlns="http://www.w3.org/2000/svg" p-id="1541" width="200" height="200"><path d="M0 0m204.8 0l614.4 0q204.8 0 204.8 204.8l0 614.4q0 204.8-204.8 204.8l-614.4 0q-204.8 0-204.8-204.8l0-614.4q0-204.8 204.8-204.8Z" fill="#FFEC9C" p-id="1542"></path><path d="M819.2 0H534.272A756.48 756.48 0 0 0 0 483.584V819.2a204.8 204.8 0 0 0 204.8 204.8h614.4a204.8 204.8 0 0 0 204.8-204.8V204.8a204.8 204.8 0 0 0-204.8-204.8z" fill="#FFE98A" p-id="1543"></path><path d="M819.2 0h-3.84a755.2 755.2 0 0 0-539.392 1024H819.2a204.8 204.8 0 0 0 204.8-204.8V204.8a204.8 204.8 0 0 0-204.8-204.8z" fill="#FFE471" p-id="1544"></path><path d="M497.152 721.152A752.384 752.384 0 0 0 560.384 1024H819.2a204.8 204.8 0 0 0 204.8-204.8V204.8a204.8 204.8 0 0 0-89.088-168.96 755.2 755.2 0 0 0-437.76 685.312z" fill="#FFE161" p-id="1545"></path><path d="M526.08 140.032l98.304 199.168L844.8 371.2a15.616 15.616 0 0 1 8.704 25.6l-159.744 156.16 37.632 219.136a15.616 15.616 0 0 1-22.528 16.384l-196.608-102.4-196.608 102.4a15.616 15.616 0 0 1-22.528-16.384l37.12-219.136-159.232-155.136a15.616 15.616 0 0 1 8.704-25.6l219.904-32 98.304-199.168a15.616 15.616 0 0 1 28.16-1.024z" fill="#FFF5CC" p-id="1546"></path><path d="M665.6 409.6a444.16 444.16 0 0 0 25.6-61.44l-65.536-9.472-99.584-198.656a15.616 15.616 0 0 0-27.904 0l-98.304 199.168L179.2 371.2a15.616 15.616 0 0 0-8.704 25.6l159.744 156.16-15.104 87.04A407.808 407.808 0 0 0 665.6 409.6z" fill="#FFFFFF" p-id="1547"></path></svg>